<svg xmlns="http://www.w3.org/2000/svg" width="382" height="387"><path d="M328.844 411.733a1077.046 1077.046 0 0 0-16.433-9.675c1.3-11.07 1.303-22.268.007-33.316 5.546-3.2 11.068-6.45 16.425-9.67 9.02-5.42 12.78-16.857 8.744-26.604l-11.772-28.42c-4.037-9.743-14.777-15.174-24.993-12.63-6.07 1.512-12.273 3.12-18.454 4.777a143.026 143.026 0 0 0-23.563-23.554 1058.22 1058.22 0 0 0 4.778-18.46c2.546-10.21-2.884-20.955-12.628-24.992l-28.418-11.77c-9.744-4.04-21.183-.282-26.605 8.74-3.23 5.374-6.483 10.9-9.675 16.433a143.227 143.227 0 0 0-33.316-.006 1084.664 1084.664 0 0 0-9.67-16.426c-5.425-9.02-16.86-12.778-26.606-8.74l-28.418 11.77c-9.742 4.036-15.174 14.78-12.63 24.992 1.516 6.085 3.122 12.29 4.777 18.455-8.73 6.9-16.65 14.82-23.553 23.563a1060.898 1060.898 0 0 0-18.463-4.78c-10.214-2.546-20.956 2.89-24.993 12.632l-11.77 28.417c-4.034 9.745-.275 21.182 8.743 26.602 5.375 3.23 10.9 6.48 16.433 9.674a143.227 143.227 0 0 0-.006 33.316 1082.377 1082.377 0 0 0-16.43 9.672c-9.017 5.42-12.776 16.857-8.74 26.603l11.772 28.418c4.036 9.743 14.775 15.176 24.993 12.63 6.063-1.51 12.267-3.116 18.452-4.776 6.9 8.73 14.82 16.647 23.563 23.553-1.66 6.19-3.267 12.395-4.778 18.46-2.545 10.212 2.885 20.957 12.63 24.993l28.418 11.772a21.24 21.24 0 0 0 8.137 1.615c7.362 0 14.514-3.78 18.47-10.355a1073.019 1073.019 0 0 0 9.675-16.432 143.282 143.282 0 0 0 33.316.006c3.18 5.51 6.43 11.033 9.67 16.426 5.422 9.02 16.858 12.777 26.605 8.74l28.418-11.77c9.742-4.036 15.174-14.78 12.63-24.992a1086.935 1086.935 0 0 0-4.777-18.455 143.253 143.253 0 0 0 23.553-23.563 1073.611 1073.611 0 0 0 18.46 4.777c10.21 2.547 20.956-2.884 24.993-12.63l11.77-28.42c4.035-9.744.276-21.18-8.742-26.6zm-23.728 45.1a1024.447 1024.447 0 0 1-17.703-4.6c-8.376-2.254-17.215.69-22.52 7.506a120.105 120.105 0 0 1-20.967 20.972c-6.807 5.302-9.748 14.138-7.493 22.51 1.603 5.953 3.148 11.9 4.6 17.695l-26.12 10.82a1024.52 1024.52 0 0 1-9.26-15.766c-4.327-7.513-12.655-11.677-21.216-10.617-9.83 1.22-19.81 1.22-29.654-.005-8.585-1.066-16.906 3.098-21.232 10.614a1066.601 1066.601 0 0 1-9.262 15.773l-26.122-10.82a1039.95 1039.95 0 0 1 4.603-17.7c2.254-8.376-.693-17.216-7.508-22.52a120.208 120.208 0 0 1-20.973-20.966c-5.3-6.81-14.137-9.75-22.51-7.496a1051.25 1051.25 0 0 1-17.696 4.6l-10.82-26.12c5.16-3.094 10.46-6.205 15.765-9.26 7.514-4.327 11.682-12.653 10.618-21.215a120.311 120.311 0 0 1 .003-29.656c1.07-8.57-3.096-16.905-10.615-21.233a1027.483 1027.483 0 0 1-15.772-9.264l10.82-26.12a1063.04 1063.04 0 0 1 17.702 4.6c8.372 2.257 17.212-.69 22.52-7.506a120.128 120.128 0 0 1 20.965-20.972c6.808-5.3 9.75-14.138 7.494-22.512a1042.71 1042.71 0 0 1-4.6-17.694l26.12-10.82a1040.573 1040.573 0 0 1 9.26 15.766c4.328 7.515 12.663 11.69 21.216 10.618a120.076 120.076 0 0 1 29.657.005c8.575 1.07 16.905-3.1 21.23-10.616a1050.807 1050.807 0 0 1 9.263-15.77l26.122 10.818a1046.467 1046.467 0 0 1-4.603 17.703c-2.256 8.374.69 17.214 7.506 22.52a120.128 120.128 0 0 1 20.973 20.964c5.3 6.806 14.132 9.747 22.51 7.493 5.92-1.594 11.865-3.14 17.694-4.6l10.82 26.12a1042.45 1042.45 0 0 1-15.766 9.26c-7.515 4.327-11.684 12.654-10.62 21.216a120.116 120.116 0 0 1-.004 29.656c-1.066 8.57 3.1 16.904 10.617 21.23 5.297 3.05 10.597 6.162 15.773 9.264l-10.817 26.124z" fill="#e8e8e8"/><path d="M241.762 355.51c-16.48-39.79-62.257-58.752-102.052-42.27-39.788 16.48-58.752 62.26-42.27 102.05 7.983 19.276 22.997 34.287 42.27 42.272 9.638 3.99 19.764 5.987 29.89 5.987 10.126 0 20.252-1.997 29.89-5.988 39.79-16.482 58.752-62.26 42.272-102.05zm-51.042 80.88c-13.618 5.64-28.617 5.64-42.24 0-13.617-5.64-24.224-16.25-29.866-29.868-11.647-28.114 1.753-60.462 29.868-72.107a54.878 54.878 0 0 1 21.047-4.202c21.666 0 42.264 12.84 51.06 34.07 11.644 28.115-1.756 60.462-29.87 72.108zm305.833-292.454a775.252 775.252 0 0 0-12.11-1.713 106.767 106.767 0 0 0-8.215-19.82 774.669 774.669 0 0 0 7.357-9.778c5.295-7.16 4.53-17.317-1.78-23.623l-15.808-15.806c-6.31-6.31-16.465-7.075-23.624-1.778a801.364 801.364 0 0 0-9.78 7.355 106.636 106.636 0 0 0-19.818-8.215 782.292 782.292 0 0 0-1.712-12.11C409.746 49.642 402.023 43 393.103 43h-22.357c-8.922 0-16.644 6.642-17.96 15.447a777.057 777.057 0 0 0-1.713 12.11 106.626 106.626 0 0 0-19.82 8.215 750.584 750.584 0 0 0-9.777-7.355c-7.16-5.297-17.317-4.532-23.624 1.777L282.046 89c-6.31 6.307-7.077 16.464-1.78 23.626a762.378 762.378 0 0 0 7.354 9.778 106.826 106.826 0 0 0-8.214 19.82c-4.09.546-8.155 1.12-12.11 1.712-8.807 1.318-15.45 9.04-15.45 17.962v22.355c0 8.922 6.64 16.644 15.448 17.962 3.956.592 8.02 1.167 12.11 1.713a106.875 106.875 0 0 0 8.215 19.82 758.17 758.17 0 0 0-7.358 9.778c-5.294 7.16-4.53 17.317 1.78 23.622l15.808 15.808c6.308 6.31 16.464 7.074 23.624 1.778 3.234-2.39 6.514-4.86 9.778-7.354a106.695 106.695 0 0 0 19.82 8.214c.545 4.09 1.12 8.155 1.712 12.11 1.318 8.807 9.04 15.45 17.962 15.45h22.356c8.922 0 16.644-6.64 17.96-15.45.592-3.956 1.166-8.02 1.713-12.11a106.674 106.674 0 0 0 19.82-8.216 759.856 759.856 0 0 0 9.777 7.356c7.16 5.297 17.317 4.532 23.624-1.777l15.808-15.806c6.31-6.307 7.075-16.464 1.778-23.625a764.502 764.502 0 0 0-7.354-9.777 106.826 106.826 0 0 0 8.214-19.82c4.09-.546 8.155-1.12 12.11-1.712 8.807-1.318 15.45-9.04 15.45-17.962V161.9c-.002-8.924-6.643-16.646-15.45-17.964zm-6.325 37.206c-3.592.52-7.257 1.027-10.934 1.506-7.273.95-13.227 6.11-15.165 13.15a84.833 84.833 0 0 1-8.01 19.327c-3.61 6.353-3.054 14.215 1.42 20.032a788.77 788.77 0 0 1 6.668 8.8l-11.404 11.404a758.336 758.336 0 0 1-8.802-6.668c-5.814-4.475-13.678-5.028-20.032-1.42a84.874 84.874 0 0 1-19.325 8.01c-7.042 1.94-12.204 7.893-13.15 15.164a763.35 763.35 0 0 1-1.506 10.935h-16.13a764.476 764.476 0 0 1-1.507-10.93c-.95-7.274-6.11-13.228-13.15-15.168a84.664 84.664 0 0 1-19.327-8.01c-6.354-3.61-14.218-3.054-20.03 1.42a782 782 0 0 1-8.804 6.67l-11.404-11.406a743.269 743.269 0 0 1 6.67-8.803c4.47-5.815 5.028-13.677 1.418-20.03a84.833 84.833 0 0 1-8.01-19.327c-1.938-7.04-7.89-12.2-15.164-13.15-3.677-.48-7.343-.984-10.935-1.507v-16.13c3.592-.52 7.257-1.026 10.934-1.505 7.274-.95 13.228-6.11 15.166-13.15a84.672 84.672 0 0 1 8.01-19.327c3.61-6.353 3.053-14.216-1.418-20.03a763.337 763.337 0 0 1-6.67-8.8l11.404-11.406a784.337 784.337 0 0 1 8.8 6.668c5.812 4.475 13.675 5.033 20.034 1.422a84.837 84.837 0 0 1 19.325-8.01c7.043-1.94 12.205-7.894 13.15-15.165.48-3.677.987-7.342 1.508-10.934h16.13c.52 3.59 1.026 7.256 1.505 10.93.95 7.275 6.11 13.23 13.15 15.168a84.867 84.867 0 0 1 19.328 8.01c6.356 3.612 14.22 3.05 20.03-1.42a769.94 769.94 0 0 1 8.804-6.668l11.404 11.405a746.57 746.57 0 0 1-6.67 8.803c-4.47 5.814-5.027 13.676-1.42 20.03a84.762 84.762 0 0 1 8.01 19.327c1.94 7.04 7.892 12.2 15.165 13.15 3.677.48 7.343.985 10.935 1.507v16.128z" fill="#e8e8e8"/><path d="M381.924 126.675c-25.585 0-46.4 20.815-46.4 46.4 0 25.588 20.814 46.403 46.4 46.403s46.4-20.815 46.4-46.402c0-25.586-20.814-46.4-46.4-46.4zm0 72.176c-14.21 0-25.775-11.562-25.775-25.775S367.71 147.3 381.923 147.3c14.212 0 25.774 11.563 25.775 25.775 0 14.213-11.564 25.776-25.776 25.776z" fill="#e8e8e8"/></svg>